<?xml version="1.0" encoding="utf-8"?>
<!-- Generator: Adobe Illustrator 24.2.0, SVG Export Plug-In . SVG Version: 6.00 Build 0)  -->
<svg version="1.1" id="Layer_1" xmlns="http://www.w3.org/2000/svg" xmlns:xlink="http://www.w3.org/1999/xlink" x="0px" y="0px"
	 viewBox="0 0 288 288" style="enable-background:new 0 0 288 288;" xml:space="preserve">
<style type="text/css">
	.st0{fill:#001730;}
	.st1{fill:#999999;}
	.st2{fill:#00D6CA;}
	.st3{fill:#0087EB;}
</style>
<g>
	<rect class="st0" width="288" height="288"/>
	<g>
		<g>
			<path class="st1" d="M17.8,193.7c0.1,0.1,0.1,0.3,0.1,0.5s0,0.4-0.1,0.5c-0.1,0.1-0.2,0.2-0.4,0.2h-2.3c-0.1,0-0.3-0.1-0.4-0.2
				s-0.1-0.3-0.1-0.5s0-0.4,0.1-0.5s0.2-0.2,0.4-0.2h2.3C17.6,193.5,17.7,193.6,17.8,193.7z"/>
			<path class="st1" d="M29.1,197.7c0.1,0.1,0.2,0.3,0.2,0.5s-0.1,0.4-0.2,0.5s-0.2,0.2-0.4,0.2h-5c-0.2,0-0.3-0.1-0.4-0.2
				c-0.1-0.1-0.2-0.3-0.2-0.5v-10.3c0-0.2,0.1-0.4,0.2-0.6c0.1-0.2,0.2-0.2,0.4-0.2h5c0.1,0,0.3,0.1,0.4,0.2s0.2,0.3,0.2,0.5
				s-0.1,0.4-0.2,0.5s-0.2,0.2-0.4,0.2h-4.4v3.8h3.9c0.1,0,0.3,0.1,0.4,0.2s0.2,0.3,0.2,0.5s-0.1,0.4-0.2,0.5s-0.2,0.2-0.4,0.2h-3.9
				v3.8h4.4C28.9,197.5,29,197.6,29.1,197.7z"/>
			<path class="st1" d="M35.8,197.8c0.1,0.1,0.1,0.3,0.1,0.5c0,0.2,0,0.4-0.1,0.5s-0.2,0.2-0.4,0.2c-0.2,0-0.3-0.1-0.4-0.3l-1.8-2.9
				l-1.7,2.9c-0.1,0.2-0.3,0.3-0.5,0.3c-0.2,0-0.3-0.1-0.4-0.2c-0.1-0.1-0.1-0.3-0.1-0.5c0-0.2,0-0.4,0.1-0.5l1.9-3.1l-1.9-3.2
				c-0.1-0.2-0.1-0.3-0.1-0.5s0.1-0.4,0.2-0.5s0.2-0.2,0.4-0.2c0.2,0,0.3,0.1,0.4,0.3l1.7,2.9l1.7-2.9c0.1-0.2,0.2-0.3,0.4-0.3
				s0.3,0.1,0.4,0.2c0.1,0.1,0.2,0.3,0.2,0.5c0,0.2,0,0.4-0.1,0.5l-2,3.2L35.8,197.8z"/>
			<path class="st1" d="M38.8,197c0.4,0.5,0.8,0.7,1.5,0.7c0.6,0,1.2-0.1,1.6-0.4c0.1-0.1,0.3-0.2,0.4-0.2c0.1,0,0.2,0.1,0.3,0.2
				c0.1,0.1,0.1,0.3,0.1,0.4c0,0.3-0.1,0.5-0.3,0.6c-0.2,0.1-0.3,0.2-0.5,0.3s-0.3,0.2-0.5,0.2c-0.4,0.1-0.8,0.2-1.3,0.2
				c-1,0-1.8-0.4-2.4-1.2S37,196,37,194.6c0-1.2,0.2-2.3,0.7-3.1c0.5-0.9,1.3-1.4,2.2-1.4c0.9,0,1.7,0.4,2.2,1.3
				c0.5,0.8,0.8,1.8,0.8,3c0,0.2-0.1,0.4-0.2,0.5s-0.2,0.2-0.4,0.2h-4.2C38.2,195.9,38.4,196.5,38.8,197z M40,191.4
				c-0.7,0-1.3,0.4-1.6,1.3c-0.1,0.3-0.2,0.7-0.2,1.1h3.6c0-0.8-0.2-1.4-0.6-1.9C40.8,191.6,40.4,191.4,40,191.4z"/>
			<path class="st1" d="M45.5,191.7c0.6-1.1,1.2-1.6,1.9-1.6h0.1c0.2,0,0.3,0.1,0.4,0.2c0.1,0.1,0.2,0.3,0.2,0.6s-0.1,0.4-0.2,0.5
				c-0.1,0.1-0.2,0.2-0.4,0.2h-0.1c-0.4,0-0.8,0.1-1.1,0.4c-0.3,0.3-0.6,0.6-0.8,1.1v5.2c0,0.2-0.1,0.4-0.2,0.5
				c-0.1,0.1-0.2,0.2-0.4,0.2s-0.3-0.1-0.4-0.2c-0.1-0.1-0.2-0.3-0.2-0.5V191c0-0.2,0.1-0.4,0.2-0.6s0.2-0.2,0.4-0.2
				s0.3,0.1,0.4,0.2s0.2,0.3,0.2,0.6V191.7z"/>
			<path class="st1" d="M51.2,197.7c0.9,0,1.4-0.4,1.4-1.2c0-0.2-0.1-0.4-0.3-0.6c-0.2-0.1-0.4-0.2-0.7-0.3
				c-0.3-0.1-0.6-0.2-0.9-0.3s-0.6-0.3-0.9-0.5c-0.3-0.2-0.5-0.4-0.7-0.8s-0.3-0.7-0.3-1.1s0-0.8,0.1-1.2c0.1-0.3,0.2-0.6,0.4-0.9
				c0.4-0.5,1-0.8,1.8-0.8c0.6,0,1.2,0.1,1.8,0.4c0.1,0.1,0.2,0.1,0.3,0.3c0.1,0.1,0.1,0.3,0.1,0.4s0,0.3-0.1,0.4s-0.2,0.2-0.3,0.2
				c-0.1,0-0.2,0-0.3-0.1c-0.4-0.2-0.8-0.3-1.3-0.3s-0.8,0.1-1.1,0.3s-0.4,0.5-0.4,0.8c0,0.3,0.1,0.6,0.3,0.7
				c0.2,0.2,0.4,0.3,0.7,0.4c0.3,0.1,0.6,0.2,0.9,0.3c0.3,0.1,0.6,0.2,0.9,0.4c0.6,0.5,1,1.2,1,2.1c0,0.7-0.2,1.3-0.6,1.8
				c-0.4,0.5-1,0.7-1.8,0.7c-0.8,0-1.6-0.3-2.2-0.8c-0.1-0.1-0.2-0.3-0.2-0.5c0-0.2,0-0.4,0.1-0.5c0.1-0.1,0.2-0.2,0.3-0.2
				s0.2,0,0.4,0.1C50.1,197.5,50.6,197.7,51.2,197.7z"/>
			<path class="st1" d="M56.4,187.6c0,0.2-0.1,0.4-0.2,0.6s-0.3,0.3-0.4,0.3h-0.1c-0.2,0-0.3-0.1-0.4-0.3c-0.1-0.2-0.2-0.4-0.2-0.6
				v-0.1c0-0.2,0.1-0.4,0.2-0.6c0.1-0.2,0.3-0.3,0.4-0.3h0.1c0.2,0,0.3,0.1,0.4,0.3S56.4,187.3,56.4,187.6L56.4,187.6z M55.3,190.4
				c0.1-0.1,0.2-0.2,0.4-0.2s0.3,0.1,0.4,0.2c0.1,0.1,0.2,0.3,0.2,0.6v7.3c0,0.2-0.1,0.4-0.2,0.5c-0.1,0.1-0.2,0.2-0.4,0.2
				s-0.3-0.1-0.4-0.2c-0.1-0.1-0.2-0.3-0.2-0.5V191C55.2,190.7,55.2,190.6,55.3,190.4z"/>
			<path class="st1" d="M63,198.2c0,0.2-0.1,0.4-0.2,0.5s-0.2,0.2-0.4,0.2h-3.9c-0.2,0-0.4-0.1-0.5-0.2c-0.2-0.2-0.2-0.4-0.2-0.6
				c0-0.3,0.1-0.5,0.2-0.7l3.6-5.6h-3.1c-0.1,0-0.3-0.1-0.4-0.2c-0.1-0.1-0.1-0.3-0.1-0.5c0-0.2,0-0.4,0.1-0.5s0.2-0.2,0.4-0.2h3.7
				c0.2,0,0.4,0.1,0.5,0.3s0.2,0.4,0.2,0.7c0,0.3-0.1,0.5-0.2,0.7l-3.5,5.6h3.2c0.1,0,0.3,0.1,0.4,0.2S63,198,63,198.2z"/>
			<path class="st1" d="M65.9,197c0.4,0.5,0.8,0.7,1.5,0.7c0.6,0,1.2-0.1,1.6-0.4c0.1-0.1,0.3-0.2,0.4-0.2c0.1,0,0.2,0.1,0.3,0.2
				c0.1,0.1,0.1,0.3,0.1,0.4c0,0.3-0.1,0.5-0.3,0.6c-0.2,0.1-0.3,0.2-0.5,0.3s-0.3,0.2-0.5,0.2c-0.4,0.1-0.8,0.2-1.3,0.2
				c-1,0-1.8-0.4-2.4-1.2s-0.8-1.9-0.8-3.3c0-1.2,0.2-2.3,0.7-3.1c0.5-0.9,1.3-1.4,2.2-1.4c0.9,0,1.7,0.4,2.2,1.3
				c0.5,0.8,0.8,1.8,0.8,3c0,0.2-0.1,0.4-0.2,0.5s-0.2,0.2-0.4,0.2h-4.2C65.3,195.9,65.5,196.5,65.9,197z M67.1,191.4
				c-0.7,0-1.3,0.4-1.6,1.3c-0.1,0.3-0.2,0.7-0.2,1.1h3.6c0-0.8-0.2-1.4-0.6-1.9C67.9,191.6,67.5,191.4,67.1,191.4z"/>
			<path class="st1" d="M79.9,190.4c0.1,0.2,0.2,0.3,0.2,0.5c0,0.2,0,0.3,0,0.4l-3.4,11.2c-0.1,0.4-0.3,0.5-0.5,0.5
				c-0.1,0-0.3-0.1-0.4-0.2c-0.1-0.1-0.2-0.3-0.2-0.4s0-0.3,0-0.4l0.8-2.8l-2.3-7.8c0-0.1,0-0.2,0-0.4c0-0.2,0.1-0.3,0.2-0.5
				c0.1-0.2,0.2-0.2,0.4-0.2c0.3,0,0.5,0.2,0.6,0.5l1.9,6.5l1.9-6.5c0.1-0.3,0.3-0.5,0.5-0.5C79.7,190.2,79.8,190.3,79.9,190.4z"/>
			<path class="st1" d="M84,190.1c1,0,1.7,0.4,2.3,1.2c0.6,0.8,0.9,1.9,0.9,3.3s-0.3,2.4-0.9,3.3c-0.6,0.8-1.3,1.2-2.3,1.2
				c-1,0-1.7-0.4-2.3-1.2c-0.6-0.8-0.9-1.9-0.9-3.3s0.3-2.4,0.9-3.3C82.3,190.5,83.1,190.1,84,190.1z M82.7,197
				c0.2,0.2,0.4,0.4,0.7,0.5s0.5,0.2,0.7,0.2s0.5-0.1,0.7-0.2s0.5-0.3,0.7-0.5c0.4-0.6,0.7-1.4,0.7-2.4c0-1-0.2-1.8-0.7-2.4
				c-0.4-0.5-0.8-0.7-1.4-0.7c-0.9,0-1.5,0.5-1.9,1.6c-0.1,0.4-0.2,0.9-0.2,1.4c0,0.6,0.1,1,0.2,1.4C82.3,196.4,82.5,196.8,82.7,197
				z"/>
			<path class="st1" d="M91.2,197.7c0.7,0,1.4-0.5,2-1.6V191c0-0.2,0.1-0.4,0.2-0.5s0.2-0.2,0.4-0.2c0.2,0,0.3,0.1,0.4,0.2
				s0.2,0.3,0.2,0.5v7.3c0,0.2-0.1,0.4-0.2,0.6c-0.1,0.1-0.2,0.2-0.4,0.2c-0.2,0-0.3-0.1-0.4-0.2c-0.1-0.1-0.2-0.3-0.2-0.6v-0.7
				c-0.3,0.5-0.6,0.8-0.9,1c-0.5,0.4-0.9,0.6-1.3,0.6c-0.4,0-0.8-0.1-1-0.3s-0.5-0.4-0.7-0.7c-0.4-0.6-0.6-1.4-0.6-2.3V191
				c0-0.2,0.1-0.4,0.2-0.5c0.1-0.1,0.2-0.2,0.4-0.2c0.2,0,0.3,0.1,0.4,0.2c0.1,0.1,0.2,0.3,0.2,0.5v4.7c0,0.6,0.1,1.2,0.3,1.5
				C90.4,197.5,90.7,197.7,91.2,197.7z"/>
			<path class="st1" d="M97.4,191.7c0.6-1.1,1.2-1.6,1.9-1.6h0.1c0.2,0,0.3,0.1,0.4,0.2c0.1,0.1,0.2,0.3,0.2,0.6s-0.1,0.4-0.2,0.5
				c-0.1,0.1-0.2,0.2-0.4,0.2h-0.1c-0.4,0-0.8,0.1-1.1,0.4c-0.3,0.3-0.6,0.6-0.8,1.1v5.2c0,0.2-0.1,0.4-0.2,0.5
				c-0.1,0.1-0.2,0.2-0.4,0.2s-0.3-0.1-0.4-0.2c-0.1-0.1-0.2-0.3-0.2-0.5V191c0-0.2,0.1-0.4,0.2-0.6s0.2-0.2,0.4-0.2
				s0.3,0.1,0.4,0.2s0.2,0.3,0.2,0.6V191.7z"/>
			<path class="st1" d="M105.4,191.7c0.5-1,1.2-1.6,2.1-1.6c0.4,0,0.8,0.2,1.2,0.5c0.3,0.3,0.5,0.7,0.7,1.2c0.2-0.5,0.5-0.9,0.7-1.1
				c0.5-0.5,1-0.7,1.6-0.7c0.7,0,1.2,0.4,1.6,1.1c0.3,0.6,0.5,1.3,0.5,2.2v4.9c0,0.2-0.1,0.4-0.2,0.5c-0.1,0.1-0.2,0.2-0.4,0.2
				c-0.2,0-0.3-0.1-0.4-0.2c-0.1-0.1-0.2-0.3-0.2-0.5v-4.6c0-0.7-0.1-1.3-0.3-1.6c-0.2-0.4-0.5-0.5-1-0.5c-0.7,0-1.3,0.5-1.8,1.6
				v5.1c0,0.2-0.1,0.4-0.2,0.5c-0.1,0.1-0.2,0.2-0.4,0.2c-0.2,0-0.3-0.1-0.4-0.2c-0.1-0.1-0.2-0.3-0.2-0.5v-4.6
				c0-0.7-0.1-1.3-0.3-1.6c-0.2-0.4-0.5-0.5-1-0.5c-0.7,0-1.3,0.5-1.8,1.6v5.1c0,0.2-0.1,0.4-0.2,0.5c-0.1,0.1-0.2,0.2-0.4,0.2
				s-0.3-0.1-0.4-0.2c-0.1-0.1-0.2-0.3-0.2-0.5V191c0-0.2,0.1-0.4,0.2-0.6s0.2-0.2,0.4-0.2s0.3,0.1,0.4,0.2s0.2,0.3,0.2,0.6V191.7z"
				/>
			<path class="st1" d="M117,187.6c0,0.2-0.1,0.4-0.2,0.6s-0.3,0.3-0.4,0.3h-0.1c-0.2,0-0.3-0.1-0.4-0.3c-0.1-0.2-0.2-0.4-0.2-0.6
				v-0.1c0-0.2,0.1-0.4,0.2-0.6c0.1-0.2,0.3-0.3,0.4-0.3h0.1c0.2,0,0.3,0.1,0.4,0.3S117,187.3,117,187.6L117,187.6z M115.9,190.4
				c0.1-0.1,0.2-0.2,0.4-0.2s0.3,0.1,0.4,0.2c0.1,0.1,0.2,0.3,0.2,0.6v7.3c0,0.2-0.1,0.4-0.2,0.5c-0.1,0.1-0.2,0.2-0.4,0.2
				s-0.3-0.1-0.4-0.2c-0.1-0.1-0.2-0.3-0.2-0.5V191C115.7,190.7,115.8,190.6,115.9,190.4z"/>
			<path class="st1" d="M122,191.5c-0.7,0-1.4,0.5-2,1.6v5.1c0,0.2-0.1,0.4-0.2,0.5c-0.1,0.1-0.2,0.2-0.4,0.2s-0.3-0.1-0.4-0.2
				c-0.1-0.1-0.2-0.3-0.2-0.5V191c0-0.2,0.1-0.4,0.2-0.6s0.2-0.2,0.4-0.2s0.3,0.1,0.4,0.2s0.2,0.3,0.2,0.6v0.7
				c0.3-0.5,0.6-0.8,0.9-1c0.5-0.4,0.9-0.6,1.3-0.6c0.4,0,0.8,0.1,1,0.3s0.5,0.4,0.7,0.7c0.4,0.6,0.6,1.4,0.6,2.3v4.8
				c0,0.2-0.1,0.4-0.2,0.5c-0.1,0.1-0.2,0.2-0.4,0.2c-0.2,0-0.3-0.1-0.4-0.2c-0.1-0.1-0.2-0.3-0.2-0.5v-4.7c0-0.6-0.1-1.2-0.3-1.5
				S122.5,191.5,122,191.5z"/>
			<path class="st1" d="M131.1,197.8c-0.6,0.9-1.3,1.3-2.1,1.3c-0.8,0-1.5-0.4-2.1-1.2c-0.6-0.8-0.9-2-0.9-3.3
				c0-1.4,0.3-2.5,0.9-3.3c0.6-0.8,1.3-1.2,2.1-1.2c0.8,0,1.5,0.4,2.1,1.3v-4.2c0-0.2,0.1-0.4,0.2-0.6c0.1-0.1,0.2-0.2,0.4-0.2
				c0.2,0,0.3,0.1,0.4,0.2c0.1,0.1,0.2,0.3,0.2,0.6v11c0,0.2-0.1,0.4-0.2,0.5c-0.1,0.1-0.2,0.2-0.4,0.2c-0.2,0-0.3-0.1-0.4-0.2
				c-0.1-0.1-0.2-0.3-0.2-0.5V197.8z M131.1,192.8c-0.6-0.8-1.2-1.3-2-1.3c-0.9,0-1.6,0.6-1.9,1.7c-0.1,0.4-0.2,0.8-0.2,1.3
				c0,1,0.2,1.7,0.6,2.3c0.4,0.5,0.8,0.8,1.4,0.8c0.7,0,1.4-0.4,2-1.3V192.8z"/>
			<path class="st1" d="M140.5,193.7c0.1,0.1,0.1,0.3,0.1,0.5s0,0.4-0.1,0.5c-0.1,0.1-0.2,0.2-0.4,0.2h-2.3c-0.1,0-0.3-0.1-0.4-0.2
				s-0.1-0.3-0.1-0.5s0-0.4,0.1-0.5s0.2-0.2,0.4-0.2h2.3C140.2,193.5,140.4,193.6,140.5,193.7z"/>
		</g>
		<g>
			<path class="st2" d="M28.2,133.2c0.3,0,0.5,0.1,0.7,0.3s0.3,0.5,0.3,0.7v9.8c0,2-0.5,3.5-1.5,4.4c-0.8,0.7-1.9,1.1-3.2,1.1
				c-1.1,0-2.1-0.3-3.1-0.8c-0.3-0.2-0.5-0.4-0.5-0.7c0-0.3,0.1-0.6,0.2-0.8c0.2-0.2,0.3-0.3,0.6-0.3s0.4,0.1,0.6,0.2
				c0.6,0.3,1.1,0.4,1.7,0.4c0.5,0,1,0,1.3-0.1c0.3-0.1,0.6-0.2,0.9-0.5c0.6-0.6,0.9-1.5,0.9-2.8v-10c0-0.3,0.1-0.5,0.3-0.7
				C27.6,133.3,27.9,133.2,28.2,133.2z"/>
			<path class="st2" d="M33.6,138.3c1.3-0.6,2.6-0.8,4-0.8c1.6,0,2.8,0.5,3.6,1.4c0.8,0.8,1.1,1.9,1.1,3.1v6.5
				c0,0.3-0.1,0.5-0.3,0.7c-0.2,0.2-0.5,0.3-0.7,0.3c-0.3,0-0.5-0.1-0.7-0.3c-0.2-0.2-0.3-0.4-0.3-0.7v-0.6c-0.4,0.4-1,0.8-1.7,1.2
				s-1.6,0.6-2.7,0.6c-1.1,0-1.9-0.3-2.6-0.9c-0.7-0.6-1.1-1.5-1.1-2.5c0-1.1,0.4-2,1.3-2.7c0.9-0.7,2.3-1.1,4-1.1h2.8v-0.2
				c0-1-0.3-1.8-0.8-2.2s-1.3-0.7-2.3-0.7c-0.9,0-1.9,0.2-3.1,0.6c-0.1,0-0.3,0-0.4,0c-0.2,0-0.3-0.1-0.5-0.2
				c-0.2-0.2-0.3-0.4-0.3-0.7C33,138.7,33.2,138.4,33.6,138.3z M34.3,146c0,1.2,0.8,1.8,2.4,1.8c0.7,0,1.4-0.2,2-0.5
				c0.6-0.4,1.1-0.8,1.5-1.2v-1.9h-2.5c-1.1,0-1.9,0.1-2.6,0.4C34.7,144.8,34.3,145.3,34.3,146z"/>
			<path class="st2" d="M53.5,138.2c0.2-0.4,0.5-0.6,1-0.6c0.2,0,0.5,0.1,0.7,0.3s0.3,0.4,0.3,0.6c0,0.2,0,0.5-0.1,0.6l-4,9.6
				c-0.1,0.2-0.3,0.4-0.5,0.6c-0.2,0.2-0.5,0.3-0.8,0.3h-0.2c-0.3,0-0.5-0.1-0.8-0.3c-0.2-0.2-0.4-0.4-0.5-0.6l-4-9.6
				c-0.1-0.2-0.1-0.4-0.1-0.6s0.1-0.4,0.3-0.6s0.4-0.3,0.7-0.3c0.5,0,0.8,0.2,1,0.6l3.5,8.9L53.5,138.2z"/>
			<path class="st2" d="M58.2,138.3c1.3-0.6,2.6-0.8,4-0.8c1.6,0,2.8,0.5,3.6,1.4c0.8,0.8,1.1,1.9,1.1,3.1v6.5
				c0,0.3-0.1,0.5-0.3,0.7c-0.2,0.2-0.5,0.3-0.7,0.3c-0.3,0-0.5-0.1-0.7-0.3c-0.2-0.2-0.3-0.4-0.3-0.7v-0.6c-0.4,0.4-1,0.8-1.7,1.2
				s-1.6,0.6-2.7,0.6c-1.1,0-1.9-0.3-2.6-0.9c-0.7-0.6-1.1-1.5-1.1-2.5c0-1.1,0.4-2,1.3-2.7c0.9-0.7,2.3-1.1,4-1.1h2.8v-0.2
				c0-1-0.3-1.8-0.8-2.2s-1.3-0.7-2.3-0.7c-0.9,0-1.9,0.2-3.1,0.6c-0.1,0-0.3,0-0.4,0c-0.2,0-0.3-0.1-0.5-0.2
				c-0.2-0.2-0.3-0.4-0.3-0.7C57.6,138.7,57.8,138.4,58.2,138.3z M58.9,146c0,1.2,0.8,1.8,2.4,1.8c0.7,0,1.4-0.2,2-0.5
				c0.6-0.4,1.1-0.8,1.5-1.2v-1.9h-2.5c-1.1,0-1.9,0.1-2.6,0.4C59.2,144.8,58.9,145.3,58.9,146z"/>
			<path class="st2" d="M74.3,147.7c1.7,0,2.6-0.5,2.6-1.6c0-0.3-0.2-0.6-0.5-0.8c-0.3-0.2-0.8-0.3-1.3-0.5
				c-0.5-0.1-1.1-0.3-1.7-0.4c-0.6-0.1-1.2-0.3-1.7-0.6c-0.5-0.3-0.9-0.6-1.3-1c-0.3-0.4-0.5-0.9-0.5-1.6s0.1-1.1,0.3-1.6
				c0.2-0.4,0.5-0.8,0.8-1.1c0.8-0.7,1.9-1,3.4-1c1.1,0,2.3,0.2,3.3,0.6c0.2,0.1,0.4,0.2,0.5,0.4c0.1,0.2,0.2,0.4,0.2,0.6
				s-0.1,0.4-0.3,0.6c-0.2,0.2-0.3,0.3-0.5,0.3c-0.2,0-0.4,0-0.6-0.1c-0.7-0.2-1.5-0.3-2.4-0.3c-0.9,0-1.5,0.2-2,0.5
				c-0.5,0.3-0.7,0.7-0.7,1.1s0.2,0.7,0.5,1c0.3,0.2,0.8,0.4,1.3,0.5c0.5,0.1,1.1,0.3,1.7,0.4c0.6,0.1,1.2,0.3,1.7,0.6
				c1.2,0.6,1.8,1.6,1.8,2.9c0,1-0.4,1.8-1.1,2.4c-0.8,0.7-1.9,1-3.3,1c-1.5,0-2.9-0.3-4.2-1c-0.3-0.2-0.4-0.4-0.4-0.7
				s0.1-0.5,0.3-0.7c0.2-0.2,0.4-0.3,0.6-0.3c0.2,0,0.4,0.1,0.7,0.2C72.2,147.5,73.2,147.7,74.3,147.7z"/>
			<path class="st2" d="M87.2,147.7c0.9,0,1.7-0.2,2.5-0.6c0.3-0.2,0.5-0.2,0.7-0.2c0.2,0,0.4,0.1,0.6,0.3c0.2,0.2,0.3,0.4,0.3,0.7
				s-0.2,0.5-0.5,0.8c-1.1,0.7-2.3,1.1-3.7,1.1c-1.7,0-3.1-0.5-4.3-1.6c-1.2-1.1-1.8-2.6-1.8-4.5c0-1.9,0.6-3.4,1.8-4.5
				c1.2-1.1,2.6-1.6,4.3-1.6c0.9,0,1.7,0.1,2.3,0.4c0.6,0.2,1.1,0.5,1.4,0.7c0.4,0.2,0.5,0.5,0.5,0.8s-0.1,0.5-0.3,0.7
				c-0.2,0.2-0.3,0.3-0.5,0.3c-0.3,0-0.5-0.1-0.8-0.2c-0.8-0.4-1.6-0.6-2.5-0.6c-1.3,0-2.4,0.4-3.1,1.1c-0.7,0.8-1.1,1.8-1.1,3
				c0,1.2,0.4,2.2,1.1,3C84.8,147.3,85.8,147.7,87.2,147.7z"/>
			<path class="st2" d="M96,139.6c1.1-1.4,2.3-2.2,3.6-2.2h0.1c0.3,0,0.5,0.1,0.7,0.3c0.2,0.2,0.3,0.4,0.3,0.7
				c0,0.3-0.1,0.5-0.3,0.7c-0.2,0.2-0.5,0.3-0.8,0.3h-0.1c-0.8,0-1.5,0.2-2.1,0.6c-0.6,0.4-1.1,0.9-1.5,1.5v7c0,0.3-0.1,0.5-0.3,0.7
				c-0.2,0.2-0.5,0.3-0.7,0.3c-0.3,0-0.5-0.1-0.7-0.3c-0.2-0.2-0.3-0.4-0.3-0.7v-9.9c0-0.3,0.1-0.5,0.3-0.7c0.2-0.2,0.4-0.3,0.7-0.3
				c0.3,0,0.5,0.1,0.7,0.3s0.3,0.5,0.3,0.7V139.6z"/>
			<path class="st2" d="M105.2,134.1c0,0.3-0.1,0.6-0.3,0.8c-0.2,0.2-0.5,0.3-0.8,0.3h-0.1c-0.3,0-0.6-0.1-0.8-0.3s-0.3-0.5-0.3-0.8
				V134c0-0.3,0.1-0.6,0.3-0.8s0.5-0.3,0.8-0.3h0.1c0.3,0,0.6,0.1,0.8,0.3C105.1,133.4,105.2,133.7,105.2,134.1L105.2,134.1z
				 M103.2,137.9c0.2-0.2,0.4-0.3,0.7-0.3s0.5,0.1,0.7,0.3c0.2,0.2,0.3,0.5,0.3,0.8v9.9c0,0.3-0.1,0.5-0.3,0.7
				c-0.2,0.2-0.4,0.3-0.7,0.3s-0.5-0.1-0.7-0.3c-0.2-0.2-0.3-0.4-0.3-0.7v-9.9C102.9,138.3,103,138.1,103.2,137.9z"/>
			<path class="st2" d="M110.8,139.2c1.1-1.2,2.4-1.7,3.9-1.7s2.8,0.5,3.8,1.6c1.2,1.2,1.7,2.7,1.7,4.5c0,1.9-0.6,3.4-1.7,4.5
				c-1.1,1-2.4,1.6-3.8,1.6c-1.5,0-2.8-0.6-3.9-1.7v5.9c0,0.3-0.1,0.6-0.3,0.8c-0.2,0.2-0.4,0.3-0.7,0.3c-0.3,0-0.5-0.1-0.7-0.3
				c-0.2-0.2-0.3-0.5-0.3-0.8v-15.2c0-0.3,0.1-0.5,0.3-0.7c0.2-0.2,0.4-0.3,0.7-0.3c0.3,0,0.5,0.1,0.7,0.3s0.3,0.4,0.3,0.7V139.2z
				 M110.8,146c1,1.2,2.3,1.7,3.6,1.7c1.7,0,2.9-0.8,3.5-2.3c0.2-0.5,0.3-1.1,0.3-1.8c0-1.3-0.4-2.4-1.1-3.1c-0.7-0.7-1.6-1-2.7-1
				c-1.4,0-2.6,0.6-3.6,1.7V146z"/>
			<path class="st2" d="M127.4,147.8c0.4,0,0.7,0,0.9-0.1c0.2-0.1,0.4-0.1,0.6-0.1s0.4,0.1,0.6,0.2c0.2,0.2,0.3,0.4,0.3,0.7
				c0,0.3-0.2,0.5-0.5,0.7c-0.7,0.3-1.2,0.5-1.7,0.5c-0.5,0-0.9,0-1.3-0.1s-0.8-0.2-1.1-0.4c-0.8-0.5-1.3-1.3-1.3-2.6v-7.1h-1.6
				c-0.3,0-0.4-0.1-0.4-0.4c0-0.1,0.1-0.3,0.2-0.4l3.1-3.1c0.1-0.1,0.3-0.2,0.4-0.2c0.1,0,0.2,0,0.3,0.1c0.1,0.1,0.1,0.2,0.1,0.3
				v1.8h2.6c0.3,0,0.5,0.1,0.6,0.3c0.2,0.2,0.3,0.4,0.3,0.6s-0.1,0.5-0.3,0.6c-0.2,0.2-0.4,0.3-0.6,0.3H126v6.9c0,0.6,0.2,1,0.5,1.2
				C126.7,147.7,127,147.8,127.4,147.8z"/>
			<path class="st2" d="M64.2,177.1c-0.4,0.1-0.9,0.1-1.4,0.1c-2.4,0-4.4-0.8-5.8-2.3c-1.5-1.5-2.2-3.5-2.2-5.9
				c0-2.4,0.8-4.4,2.2-5.9c1.5-1.5,3.4-2.3,5.8-2.3c2.4,0,4.4,0.8,5.8,2.3c1.4,1.5,2.2,3.5,2.2,5.9c0,1.8-0.5,3.4-1.3,4.7
				c-0.8,1.3-2,2.3-3.5,2.9l2,2.2c0.2,0.2,0.3,0.4,0.3,0.7c0,0.3-0.1,0.5-0.3,0.7c-0.2,0.2-0.4,0.3-0.7,0.3c-0.3,0-0.5-0.1-0.7-0.4
				L64.2,177.1z M62.8,175.3c1.9,0,3.3-0.6,4.4-1.8c1-1.2,1.6-2.7,1.6-4.5c0-1.8-0.5-3.3-1.6-4.5c-1.1-1.2-2.5-1.8-4.4-1.8
				s-3.3,0.6-4.4,1.8c-1,1.2-1.6,2.7-1.6,4.5c0,1.8,0.5,3.3,1.6,4.5C59.4,174.7,60.9,175.3,62.8,175.3z"/>
			<path class="st2" d="M78.3,175.3c1.3,0,2.6-0.7,3.8-2.2v-6.9c0-0.3,0.1-0.5,0.3-0.7s0.5-0.3,0.7-0.3c0.3,0,0.5,0.1,0.7,0.3
				c0.2,0.2,0.3,0.4,0.3,0.7v9.9c0,0.3-0.1,0.6-0.3,0.8c-0.2,0.2-0.4,0.3-0.7,0.3c-0.3,0-0.5-0.1-0.7-0.3c-0.2-0.2-0.3-0.5-0.3-0.8
				v-0.9c-0.6,0.6-1.1,1.1-1.6,1.4c-0.9,0.5-1.7,0.8-2.5,0.8c-0.8,0-1.4-0.1-1.9-0.4c-0.5-0.2-0.9-0.6-1.3-1
				c-0.7-0.8-1.1-1.9-1.1-3.2v-6.5c0-0.3,0.1-0.5,0.3-0.7s0.5-0.3,0.7-0.3c0.3,0,0.5,0.1,0.7,0.3c0.2,0.2,0.3,0.4,0.3,0.7v6.3
				c0,0.9,0.2,1.6,0.6,2.1C76.7,175.1,77.4,175.3,78.3,175.3z"/>
			<path class="st2" d="M90.2,161.7c0,0.3-0.1,0.6-0.3,0.8c-0.2,0.2-0.5,0.3-0.8,0.3h-0.1c-0.3,0-0.6-0.1-0.8-0.3
				c-0.2-0.2-0.3-0.5-0.3-0.8v-0.1c0-0.3,0.1-0.6,0.3-0.8c0.2-0.2,0.5-0.3,0.8-0.3H89c0.3,0,0.6,0.1,0.8,0.3
				C90.1,161,90.2,161.3,90.2,161.7L90.2,161.7z M88.2,165.5c0.2-0.2,0.4-0.3,0.7-0.3s0.5,0.1,0.7,0.3c0.2,0.2,0.3,0.5,0.3,0.8v9.9
				c0,0.3-0.1,0.5-0.3,0.7c-0.2,0.2-0.4,0.3-0.7,0.3s-0.5-0.1-0.7-0.3c-0.2-0.2-0.3-0.4-0.3-0.7v-9.9
				C87.9,165.9,88,165.7,88.2,165.5z"/>
			<path class="st2" d="M102.4,176c0,0.3-0.1,0.5-0.3,0.7c-0.2,0.2-0.4,0.3-0.7,0.3h-7.2c-0.4,0-0.7-0.1-1-0.3s-0.4-0.5-0.4-0.9
				c0-0.4,0.1-0.7,0.4-1l6.6-7.6h-5.8c-0.3,0-0.5-0.1-0.7-0.3c-0.2-0.2-0.3-0.4-0.3-0.7c0-0.3,0.1-0.5,0.3-0.7s0.4-0.3,0.7-0.3h7
				c0.4,0,0.7,0.1,1,0.4c0.2,0.2,0.4,0.5,0.4,0.9s-0.1,0.7-0.3,1l-6.4,7.5h5.9c0.3,0,0.5,0.1,0.7,0.3
				C102.3,175.5,102.4,175.8,102.4,176z"/>
		</g>
	</g>
	<g>
		<path class="st2" d="M138.2,114c54.4-42.6,120.9,17.1,59.8,60c-26.7,18.8,8.4,25.9-35.2,24.5c-1.7-16.6-3.3-21.5,0.6-27.2
			c7-10.3,19.1-12.2,26.1-23.5c7.9-12.7-1.9-27.5-21.6-22.1C147,131.4,153.8,139.7,138.2,114z"/>
		<path class="st2" d="M155.9,225.8c0.7-20.5,32.5-19.3,31.8,1.1C187.1,247.3,155.3,246.4,155.9,225.8z"/>
		<g>
			<path class="st2" d="M172.1,199.1c-2.6,0-5.7-0.1-9.3-0.2l-0.4,0l0-0.4c-0.3-3-0.6-5.6-0.9-7.9c-1.2-10.4-1.7-14.8,1.6-19.6
				c3.4-5,8.1-8.1,12.6-11.1c4.9-3.2,9.9-6.6,13.5-12.3c3.5-5.6,3.5-12,0.1-16.6c-4.1-5.5-12-7.3-21.1-4.8
				c-5.4,1.5-8.9,3.1-11.4,4.3c-7.1,3.3-7.2,3-15.8-11.3c-0.9-1.5-1.9-3.1-2.9-4.9l-0.2-0.4l0.3-0.3c18.8-14.8,41.5-18.8,60.5-10.7
				c13.9,5.9,23,17,24.3,29.9c1.6,14.7-7.1,29.4-24.4,41.6c-11.6,8.2-11.3,14-11.1,17.9c0.1,1.8,0.2,3.4-1,4.5
				C184.7,198.4,180.8,199.1,172.1,199.1z M163.2,197.9c14.5,0.5,20.5,0,22.3-1.8c0.8-0.9,0.8-2.1,0.7-3.8
				c-0.2-4.1-0.5-10.3,11.5-18.8c17-11.9,25.5-26.4,24-40.7c-1.3-12.5-10.2-23.4-23.7-29.1c-18.6-7.8-40.6-4-59.1,10.3
				c1,1.6,1.9,3.1,2.7,4.5c8.3,13.9,8.3,13.9,14.6,10.9c2.6-1.2,6.2-2.9,11.6-4.4c9.6-2.6,17.9-0.7,22.2,5.1c3.7,5,3.7,11.8,0,17.8
				c-3.7,6-8.8,9.4-13.8,12.6c-4.6,3.1-9,6-12.3,10.8c-3.1,4.5-2.6,8.4-1.4,18.9C162.7,192.6,163,195.1,163.2,197.9z"/>
		</g>
		<g>
			<path class="st2" d="M171.9,242.2c-0.2,0-0.4,0-0.6,0c-7.9-0.3-16.2-5.5-15.8-16.4c0.2-6,3-10.7,7.9-13.3
				c5.4-2.9,12.6-2.7,17.9,0.6c4.7,2.9,7.2,7.8,7,13.8C187.9,237.5,179.6,242.2,171.9,242.2z M156.4,225.8
				c-0.3,10.2,7.5,15.2,14.9,15.4c7.4,0.3,15.6-4.1,15.9-14.4c0.2-5.6-2.1-10.1-6.6-12.9c-5-3.1-11.7-3.3-16.9-0.6
				C159.2,215.8,156.6,220.2,156.4,225.8L156.4,225.8z"/>
		</g>
		<g>
			<g>
				<path class="st2" d="M172.1,203.6c-2.7,0-5.8-0.1-9.4-0.2l-4.4-0.1l-0.4-4.3c-0.3-3-0.6-5.6-0.9-7.9
					c-1.3-10.9-1.9-16.4,2.3-22.6l0.1-0.1l0.8,0.6l-0.1,0.1c-4,5.9-3.4,11.2-2.1,21.9c0.3,2.3,0.6,4.9,0.9,7.9l0.4,3.5l3.5,0.1
					c17.5,0.6,23.1-0.1,26.1-3.1c0.9-0.9,1.4-1.9,1.7-3.1l1,0.2c-0.3,1.4-1,2.6-2,3.6C186.9,202.6,182.7,203.6,172.1,203.6z"/>
			</g>
			<g>
				<path class="st2" d="M188.1,140.3l-1-0.1c0.1-0.5,0.1-1,0.1-1.4c0-1.5-0.3-2.9-1-4.1c-1.7-3.1-5.2-5-9.8-5.1c-0.7,0-1.4,0-2.1,0
					l-0.1-1c0.7-0.1,1.5-0.1,2.2,0c4.9,0.2,8.8,2.2,10.6,5.6c0.8,1.4,1.1,3,1.1,4.6C188.2,139.3,188.2,139.8,188.1,140.3z"/>
			</g>
			<g>
				<path class="st2" d="M151.5,136.6c-0.1,0-0.2,0-0.3,0c-5.4-0.2-7.6-4-14.4-15.2c-0.9-1.5-1.8-3.1-2.9-4.9l-2.3-3.8l3.5-2.7
					c8.7-6.8,18-11.5,27.7-13.9l0.2,1c-9.6,2.4-18.8,7-27.4,13.7l-2.8,2.2l1.8,3c1.1,1.8,2,3.4,2.9,4.9c6.5,10.9,8.7,14.6,13.6,14.7
					c1.2,0,2.3-0.2,3.7-0.7l0.3,0.9C153.9,136.4,152.7,136.6,151.5,136.6z"/>
			</g>
			<g>
				<path class="st2" d="M214.2,166.5l-0.7-0.7c8.5-9.2,12.9-19.5,12.9-29.6c0-2.1-0.2-4.3-0.6-6.3l1-0.2c0.4,2.2,0.6,4.4,0.6,6.5
					C227.4,146.6,222.8,157,214.2,166.5z"/>
			</g>
		</g>
		<g>
			<g>
				<path class="st2" d="M171.2,246.7L171.2,246.7c-10.1-0.3-20.3-7.4-20.3-20.3c0-0.3,0-0.5,0-0.8c0.1-2.5,0.5-4.8,1.3-6.9l0.9,0.3
					c-0.8,2-1.2,4.3-1.2,6.6c0,0.3,0,0.5,0,0.8c0,12.2,9.7,18.9,19.2,19.3L171.2,246.7z M190.2,236.5l-0.9-0.5
					c1.5-2.6,2.3-5.7,2.4-9.1c0-0.3,0-0.5,0-0.8c0-4.1-1.1-7.7-3.1-10.8l0.8-0.6c2.2,3.2,3.3,7,3.3,11.3c0,0.3,0,0.5,0,0.8
					C192.6,230.5,191.8,233.7,190.2,236.5z"/>
			</g>
		</g>
		<path class="st3" d="M197.5,142.8c42.4-33.2,94,13.3,46.5,46.7c-20.7,14.6,6.5,20.2-27.4,19c-1.3-12.9-2.6-16.7,0.5-21.1
			c5.5-8,14.9-9.5,20.3-18.3c6.1-9.9-1.5-21.4-16.8-17.2C204.3,156.4,209.6,162.9,197.5,142.8z"/>
		<path class="st3" d="M211.3,229.8c0.5-16,25.2-15,24.7,0.8C235.5,246.5,210.7,245.8,211.3,229.8z"/>
		<g>
			<path class="st3" d="M223.8,209.2c-2,0-4.4,0-7.2-0.1l-0.4,0l0-0.4c-0.2-2.3-0.5-4.4-0.7-6.2c-1-8.2-1.3-11.5,1.2-15.3
				c2.7-3.9,6.3-6.3,9.8-8.7c3.8-2.5,7.7-5.1,10.4-9.6c2.7-4.3,2.7-9.3,0.1-12.8c-3.2-4.2-9.3-5.6-16.3-3.7
				c-4.2,1.1-6.9,2.4-8.9,3.4c-5.6,2.6-5.8,2.2-12.5-8.9c-0.7-1.1-1.4-2.4-2.3-3.8l-0.2-0.4l0.3-0.3c14.7-11.5,32.3-14.6,47.2-8.4
				c10.8,4.6,17.9,13.3,19,23.4c1.2,11.4-5.5,23-19,32.5c-9,6.3-8.7,10.9-8.6,13.9c0.1,1.4,0.1,2.7-0.8,3.6
				C233.7,208.6,230.6,209.2,223.8,209.2z M217.1,208c11.2,0.4,15.8,0,17.1-1.4c0.6-0.6,0.6-1.6,0.5-2.8c-0.2-3.2-0.4-8.1,9-14.7
				c13.2-9.3,19.8-20.5,18.6-31.5c-1-9.7-7.9-18.1-18.4-22.6c-14.4-6.1-31.5-3.1-45.8,8c0.7,1.2,1.4,2.4,2.1,3.4
				c6.4,10.7,6.4,10.7,11.2,8.5c2-0.9,4.8-2.2,9-3.4c7.5-2,14-0.5,17.4,4c2.9,3.9,2.9,9.2,0,13.9c-2.9,4.7-6.9,7.3-10.7,9.9
				c-3.6,2.4-7,4.6-9.6,8.4c-2.4,3.5-2,6.5-1.1,14.6C216.6,204,216.8,205.9,217.1,208z"/>
		</g>
		<g>
			<path class="st3" d="M223.7,242.7c-2.6,0-5.2-0.7-7.4-2c-3.7-2.3-5.7-6.2-5.5-10.9l0,0c0.3-8.5,7.1-12.2,13.2-12
				c6.4,0.2,12.8,4.7,12.5,12.9c-0.2,4.7-2.4,8.4-6.2,10.5C228.3,242.2,226,242.7,223.7,242.7z M211.8,229.8c-0.1,4.3,1.6,7.9,5,10
				c3.8,2.4,9,2.5,13,0.4c3.5-1.9,5.6-5.3,5.7-9.6c0.3-7.9-5.8-11.6-11.5-11.8C218.3,218.6,212,222,211.8,229.8L211.8,229.8z"/>
		</g>
		<g>
			<g>
				<path class="st3" d="M223.9,213.7c-2.1,0-4.6-0.1-7.4-0.1l-4.4-0.1l-0.4-4.3c-0.2-2.2-0.5-4.2-0.7-5.9l0-0.2
					c-1-8.8-1.5-13.2,2-18.4c1.2-1.7,2.6-3.3,4.3-4.8l0.7,0.7c-1.6,1.5-3,3-4.1,4.6c-3.3,4.8-2.8,9.1-1.8,17.7l0,0.2
					c0.2,1.7,0.4,3.7,0.7,6l0.4,3.5l3.5,0.1c14.1,0.5,18.4-0.1,20.9-2.7c2-2,1.9-4.5,1.8-6.2c0-0.6-0.1-1.3,0-2.1l1,0.1
					c-0.1,0.7,0,1.3,0,1.9c0.1,1.8,0.2,4.6-2.1,7C235.9,212.8,232.5,213.7,223.9,213.7z"/>
			</g>
			<g>
				<path class="st3" d="M235.3,163.7l-1-0.2c0.1-0.5,0.1-0.9,0.1-1.4c0-1-0.2-1.9-0.7-2.7c-1-1.9-3.2-3.1-6-3.4l0.1-1
					c3.2,0.3,5.6,1.7,6.8,3.9c0.5,1,0.8,2,0.8,3.2C235.5,162.6,235.4,163.2,235.3,163.7z"/>
			</g>
			<g>
				<path class="st3" d="M207.8,161.6c-0.1,0-0.2,0-0.3,0c-4.8-0.2-6.8-3.5-12.1-12.4c-0.7-1.1-1.4-2.4-2.3-3.8l-2.3-3.8l3.5-2.7
					c8.7-6.8,18.5-11,28.4-12.2l0.1,1c-9.7,1.1-19.3,5.2-27.9,11.9l-2.8,2.2l1.8,3c0.8,1.4,1.6,2.6,2.3,3.8
					c5.1,8.6,7,11.8,11.3,11.9c2,0.1,3.7-0.7,5.7-1.7c0.8-0.4,1.6-0.8,2.6-1.2l0.4,0.9c-1,0.4-1.8,0.8-2.5,1.1
					C211.7,160.8,209.9,161.6,207.8,161.6z"/>
			</g>
			<g>
				<path class="st3" d="M259.7,181.7l-0.8-0.6c5.3-6.7,8-13.8,8-20.9c0-1.7-0.2-3.5-0.5-5.2l1-0.2c0.3,1.8,0.5,3.6,0.5,5.4
					C268,167.6,265.2,174.8,259.7,181.7z"/>
			</g>
		</g>
		<g>
			<g>
				<path class="st3" d="M223,247.2c-8.3-0.3-16.8-6.2-16.8-16.9c0-0.2,0-0.5,0-0.7c0.4-11.5,9.6-16.6,17.9-16.4
					c6.3,0.2,12,3.5,14.8,8.5l-0.9,0.5c-2.6-4.7-8-7.8-13.9-8c-7.8-0.2-16.5,4.5-16.8,15.4c0,0.2,0,0.4,0,0.7
					c0,10.1,8,15.6,15.8,15.9L223,247.2z"/>
			</g>
		</g>
	</g>
	<path class="st2" d="M238.4,94.2c0,3.8-3,6.8-6.8,6.8c-3.8,0-6.8-3-6.8-6.8s3-6.8,6.8-6.8C235.3,87.4,238.4,90.4,238.4,94.2z"/>
	<circle class="st2" cx="236.1" cy="59.4" r="3"/>
	<circle class="st2" cx="258.8" cy="32.6" r="3"/>
	<circle class="st2" cx="277.9" cy="81.9" r="3.2"/>
	<path class="st2" d="M145.4,214.2c0,1.1-0.9,2.1-2.1,2.1c-1.1,0-2.1-0.9-2.1-2.1c0-1.1,0.9-2.1,2.1-2.1
		C144.5,212.1,145.4,213,145.4,214.2z"/>
	<circle class="st2" cx="191.5" cy="258.8" r="4"/>
	<path class="st2" d="M155.6,83.8c0,2.4-1.9,4.3-4.3,4.3s-4.3-1.9-4.3-4.3s1.9-4.3,4.3-4.3S155.6,81.4,155.6,83.8z"/>
	<path class="st2" d="M174.9,57.3c0,1.1-0.9,2.1-2.1,2.1c-1.1,0-2.1-0.9-2.1-2.1c0-1.1,0.9-2.1,2.1-2.1
		C174,55.3,174.9,56.2,174.9,57.3z"/>
	<circle class="st3" cx="253.9" cy="110.1" r="3"/>
	<path class="st3" d="M208.2,36.7c0,2.3-1.9,4.2-4.2,4.2c-2.3,0-4.2-1.9-4.2-4.2c0-2.3,1.9-4.2,4.2-4.2
		C206.3,32.6,208.2,34.5,208.2,36.7z"/>
	<path class="st3" d="M212.7,77.4c0,0.7-0.6,1.3-1.3,1.3c-0.7,0-1.3-0.6-1.3-1.3s0.6-1.3,1.3-1.3C212.1,76.1,212.7,76.6,212.7,77.4z
		"/>
	<circle class="st3" cx="252.6" cy="204.4" r="4"/>
	<path class="st3" d="M252,232.5c0,0.6-0.5,1.1-1.1,1.1c-0.6,0-1.1-0.5-1.1-1.1c0-0.6,0.5-1.1,1.1-1.1
		C251.5,231.4,252,231.9,252,232.5z"/>
	<path class="st3" d="M266.7,252.2c0,0.6-0.5,1.1-1.1,1.1c-0.6,0-1.1-0.5-1.1-1.1c0-0.6,0.5-1.1,1.1-1.1
		C266.2,251,266.7,251.6,266.7,252.2z"/>
	<circle class="st3" cx="235.2" cy="263.3" r="3.2"/>
</g>
</svg>
